{"title":"The.Sheeple.Beg.Enslave.Me.Destroy.Me.Kill.Me.2012.AVC","uid":7151798,"size":178783146,"categoryP":"video","categoryS":"handheld","magnet":"?xt=urn:btih:a79b4fec573ac58947152e3feca346139adce48f&amp;dn=The.Sheeple.Beg.Enslave.Me.Destroy.Me.Kill.Me.2012.AVC&amp;tr=udp%3A%2F%2Ftracker.openbittorrent.com%3A80&amp;tr=udp%3A%2F%2Fopen.demonii.com%3A1337&amp;tr=udp%3A%2F%2Ftracker.coppersurfer.tk%3A6969&amp;tr=udp%3A%2F%2Fexodus.desync.com%3A6969","seeders":0,"leechers":0,"uploader":"DEMONOID-Deimos","files":-1,"time":1333327939,"description":"----------------------------------------------------------\n| The.Sheeple.Beg.Enslave.Me.Destroy.Me.Kill.Me.2012.AVC |\n-----------------------------------------------------------\n\n\n -------- \n | PLOT |\n --------\n\nYou want reality? Do you want the cold hard truth in your face... We are going to bring you the best analysis we can, as close to the truth as humanly possible!!! In this shocking film Alex details various tyrannies ranging from Aborting babies up to age 3, the Treyvon scandal, The DU Military Poisoning The UN plan of depopulation and world government and the GMO DNA manipulations and genetic deformities \n\n\n----------\n | INFO |\n----------\nVIDEO:\nID : 1\nFormat : AVC\nFormat/Info : Advanced Video Codec\nFormat profile : &lt;a class=&quot;__cf_email__&quot; href=&quot;/cdn-cgi/l/email-protection&quot; data-cfemail=&quot;d391b2a0b6bfbabdb6939fe0fde3&quot;&gt;[email&amp;#160;protected]&lt;/a&gt;&lt;script cf-hash='f9e31' type=&quot;text/javascript&quot;&gt;\n/* &lt;![CDATA[ */!function(){try{var t=&quot;currentScript&quot;in document?document.currentScript:function(){for(var t=document.getElementsByTagName(&quot;script&quot;),e=t.length;e--;)if(t[e].getAttribute(&quot;cf-hash&quot;))return t[e]}();if(t&amp;&amp;t.previousSibling){var e,r,n,i,c=t.previousSibling,a=c.getAttribute(&quot;data-cfemail&quot;);if(a){for(e=&quot;&quot;,r=parseInt(a.substr(0,2),16),n=2;a.length-n;n+=2)i=parseInt(a.substr(n,2),16)^r,e+=String.fromCharCode(i);e=document.createTextNode(e),c.parentNode.replaceChild(e,c)}}}catch(u){}}();/* ]]&gt; */&lt;/script&gt;\nFormat settings, CABAC : No\nFormat settings, ReFrames : 1 frame\nCodec ID : avc1\nCodec ID/Info : Advanced Video Coding\nDuration : 39mn 41s\nBit rate : 502 Kbps\nMaximum bit rate : 1 771 Kbps\nWidth : 640 pixels\nHeight : 360 pixels\nDisplay aspect ratio : 16:9\nFrame rate mode : Constant\nFrame rate : 29.970 fps\nColor space : YUV\nChroma subsampling : 4:2:0\nBit depth : 8 bits\nScan type : Progressive\nBits/(Pixel*Frame) : 0.073\nStream size : 143 MiB (84%)\nAudio:\nFormat : AAC\nFormat/Info : Advanced Audio Codec\nFormat profile : LC\nCodec ID : 40\nDuration : 39mn 41s\nBit rate mode : Variable\nBit rate : 96.0 Kbps\nMaximum bit rate : 169 Kbps\nChannel(s) : 2 channels\nChannel positions : Front: L R\nSampling rate : 44.1 KHz\nCompression mode : Lossy\nStream size : 27.3 MiB (16%)","torrent":{"xt":"urn:btih:a79b4fec573ac58947152e3feca346139adce48f","amp;dn":"The.Sheeple.Beg.Enslave.Me.Destroy.Me.Kill.Me.2012.AVC","amp;tr":["udp%3A%2F%2Ftracker.openbittorrent.com%3A80","udp%3A%2F%2Fopen.demonii.com%3A1337","udp%3A%2F%2Ftracker.coppersurfer.tk%3A6969","udp%3A%2F%2Fexodus.desync.com%3A6969"],"infoHash":"a79b4fec573ac58947152e3feca346139adce48f","infoHashBuffer":{"type":"Buffer","data":[167,155,79,236,87,58,197,137,71,21,46,63,236,163,70,19,154,220,228,143]},"announce":[],"urlList":[]}}